<?xml version="1.0" encoding="UTF-8" standalone="no"?>
<!-- Created with Inkscape (http://www.inkscape.org/) -->

<svg
   id="svg2"
   inkscape:version="1.1.1 (3bf5ae0d25, 2021-09-20)"
   inkscape:export-filename="/home/nicu/Desktop/potato_guy.png"
   viewBox="0 0 128 128"
   sodipodi:version="0.32"
   inkscape:export-xdpi="90.000000"
   version="1.1"
   inkscape:export-ydpi="90.000000"
   sodipodi:docname="logo-dark.svg"
   xmlns:inkscape="http://www.inkscape.org/namespaces/inkscape"
   xmlns:sodipodi="http://sodipodi.sourceforge.net/DTD/sodipodi-0.dtd"
   xmlns="http://www.w3.org/2000/svg"
   xmlns:svg="http://www.w3.org/2000/svg"
   xmlns:rdf="http://www.w3.org/1999/02/22-rdf-syntax-ns#"
   xmlns:cc="http://creativecommons.org/ns#"
   xmlns:dc="http://purl.org/dc/elements/1.1/">
  <defs
     id="defs81" />
  <sodipodi:namedview
     id="base"
     bordercolor="#666666"
     inkscape:window-x="0"
     inkscape:guide-bbox="true"
     pagecolor="#ffffff"
     inkscape:window-maximized="1"
     inkscape:zoom="2"
     inkscape:pageshadow="2"
     borderopacity="1.0"
     inkscape:current-layer="layer1"
     inkscape:cx="-128.75"
     inkscape:window-y="0"
     inkscape:cy="18"
     inkscape:document-units="px"
     inkscape:window-width="1920"
     showgrid="false"
     inkscape:pageopacity="0.0"
     inkscape:window-height="1015"
     showguides="true"
     inkscape:pagecheckerboard="0" />
  <g
     id="layer1"
     inkscape:label="Layer 1"
     inkscape:groupmode="layer">
    <path
       id="path1655"
       sodipodi:nodetypes="cccccccccc"
       style="fill:none;fill-rule:evenodd"
       d="m 40.098,91.252 c 12.583,3.4516 21.342,15.925 34.951,16.416 9.9834,1.3022 24.075,3.217 30.103,1.5434 14.458,-8.7502 18.89,-26.374 18.777,-37.91 -1.99,-7.135 -7.24,-12.651 -12.15,-17.94 -4.41,-9.214 -13.045,-15.932 -19.702,-23.662 -8.317,-8.677 -20.914,-6.631 -31.785,-8.86 -10.445,-2.529 -20.827,-9.749 -32.011,-6.745 -11.317,1.217 -22.023,8.135 -23.304,19.993 -3.5362,19.25 5.332,40.326 22.832,49.931" />
    <path
       id="path4927"
       sodipodi:nodetypes="cccccccccccc"
       style="fill:#ffffff;fill-opacity:0.12353;fill-rule:evenodd"
       d="m 7.5707,27.435 c -2.4698,6.1101 -1.5788,10.174 -2.6389,16.623 0.076631,2.9143 0.44866,9.3239 1.8184,6.1549 2.466,-7.019 5.2978,-19.79 13.063,-22.619 5.0832,-2.4903 10.74,-3.4977 16.357,-3.2589 4.8929,-0.94867 10.182,-2.1419 14.815,0.3889 7.5973,3.1861 25.241,5.5517 34.235,4.2511 3.0524,1.0324 -3.872,-3.6189 -6.8581,-5.7173 -8.874,-4.887 -20.146,-2.832 -29.395,-6.671 -6.414,-2.356 -12.039,-3.171 -18.814,-1.929 -7.934,0.365 -13.049,-2.388 -17.492,4.991 -0.593,0.8 -4.5932,6.927 -5.0903,7.786 z" />
    <path
       id="path4011"
       style="fill:#ffffff;fill-opacity:0.12549;fill-rule:evenodd"
       d="m 3.8422,42.211 c 2.031,-7.2369 2.6324,-15.369 7.8083,-21.255 4.9823,-5.4779 12.857,-5.9952 19.771,-6.4318 4.1103,-0.52802 8.3258,-0.74925 12.353,0.42758 6.4891,1.6154 12.638,4.7201 19.413,5.0574 4.6192,0.55454 9.1218,1.8898 13.476,3.4376 3.4003,1.1036 1.6984,4.1752 -1.2738,3.2128 -6.299,-0.024 -12.707,-0.155 -18.72,-2.277 -3.338,-0.862 -6.411,-2.626 -9.788,-3.281 -3.663,-0.521 -7.185,0.999 -10.764,1.294 -3.931,-0.177 -8.023,-0.187 -11.659,1.516 -5.437,1.422 -10.952,4.363 -13.468,9.646 -2.1864,3.597 -3.1609,7.752 -4.6977,11.608 -1.6345,2.087 -3.3837,-1.636 -2.4501,-2.955 z" />
    <path
       id="path1292"
       sodipodi:nodetypes="cccccccccccccccccccccccccc"
       style="fill:#ffffff;fill-opacity:1"
       d="m 9.5897,21.313 c -4.0861,7.1737 -6.2242,13.9 -5.5151,22.525 -0.33267,10.789 4.5144,19.247 8.3911,28.979 4.5354,8.784 16.033,9.9437 21.903,17.438 7.4232,3.586 14.947,4.7227 21.143,10.508 8.4439,6.2525 20.283,7.8541 30.422,8.8063 8.1869,1.5442 15.445,6.0913 22.412,-0.97781 7.7752,-7.2676 15.013,-16.523 15.252,-27.48 2.7233,-7.9489 2.3803,-17.313 -5.2054,-22.488 -10.3,-11.422 -18.34,-25.404 -31.743,-33.633 -12.015,-5.807 -24.496,-1.878 -36.239,-8.579 -9.054,-4.057 -16.266,-3.285 -27.379,-2.028 -3.974,0.607 -10.756,3.816 -13.439,6.93 z m 1.0891,2.1816 c 6.2247,-7.4302 16.316,-6.7719 24.846,-8.1358 8.5688,-1.4632 15.892,4.5227 23.81,6.2091 12.077,2.281 26.682,1.8728 35.576,11.926 10.685,10.222 15.846,22.963 26.71,33.022 -0.32291,8.6234 0.90027,15.77 -3.1074,27.406 -4.6959,6.8046 -10.621,15.968 -20.039,15.447 -7.679,-1.36 -15.489,-3.69 -23.285,-4.43 -9.256,-1.08 -17.992,-4.38 -25.026,-10.358 -5.609,-5.061 -14.311,-4.299 -19.225,-10.385 -5.734,-5.344 -13.877,-7.905 -17.846,-15.268 -3.6303,-8.583 -6.7939,-16.787 -7.1874,-26.295 -0.7991,-7.009 1.2071,-14.637 4.7784,-19.139 z" />
    <path
       id="path5884"
       style="fill:#ffffff;stroke:#fffffd;fill-opacity:1;stroke-opacity:1"
       d="m 88.702,88.54 c 0.0033,0.84738 0.14962,2.8939 0.96954,1.1413 1.7785,-1.9824 4.333,-2.9729 6.7848,-3.8381 1.8125,0.51741 3.0288,2.4345 3.3649,4.1853 -0.32274,0.9723 -1.2442,3.0023 -0.24875,3.4548 1.5061,-2.5219 1.3605,-6.012 -0.6876,-8.1994 -0.80588,-1.4896 -2.6866,-2.1212 -4.1061,-1.0845 -2.3152,0.91725 -4.7633,2.1178 -6.0768,4.3406 z m 1.1299,4.6964 c -0.46139,1.5362 -0.22638,3.3274 1.2565,4.2243 1.4134,1.3661 3.5404,1.528 5.2644,0.69763 1.4234,0.06006 2.0552,-2.87 0.78871,-2.747 -1.535,1.1199 -4.3041,1.6814 -5.4887,-0.21808 -0.26016,-0.92429 -1.9189,-2.3652 -1.524,-0.41411 -0.05241,1.9429 0.0041,-2.8202 -0.04474,-0.23331 -0.0918,1.7523 -0.17679,-1.0431 -0.25212,-1.3094 z" />
    <path
       id="path6666"
       style="fill:#ffffff;stroke:#fffffd;fill-opacity:1;stroke-opacity:1"
       d="m 39.693,34.213 c 0.38433,0.6037 1.4112,1.9994 1.2069,0.3781 0.37668,-2.2175 1.7547,-4.0763 3.1158,-5.7994 1.5277,-0.4474 3.2605,0.37352 4.2898,1.4725 0.20774,0.8399 0.46461,2.7051 1.3796,2.5796 -0.06107,-2.48 -1.7381,-4.9071 -4.1869,-5.5462 -1.247,-0.70069 -2.8749,-0.30406 -3.4214,1.0762 -1.2401,1.6987 -2.4475,3.6596 -2.3837,5.8391 z m 2.9238,2.8449 c 0.36288,1.3051 1.3381,2.4785 2.8014,2.4507 1.6253,0.33862 3.2173,-0.50445 4.0743,-1.8746 1.0437,-0.5987 0.17424,-2.9762 -0.67487,-2.3175 -0.59155,1.4918 -2.3162,3.1409 -4.0184,2.3182 -0.60242,-0.54288 -2.4366,-0.8243 -1.2751,0.39116 0.83832,1.4113 -1.2683,-2.0161 -0.13712,-0.14647 0.72428,1.2929 -0.59645,-0.66534 -0.77026,-0.82156 z" />
    <path
       id="path6668"
       style="fill:none;fill-opacity:0.17059"
       d="m 36.548,34.276 c -0.1135,2.4704 1.3453,4.6244 2.7435,6.529 0.76397,0.93445 1.9438,1.5442 3.1406,1.6786 0.82314,0.18558 1.3793,-0.51721 0.66453,-1.1376 -0.93022,-0.92906 -2.4976,-0.39312 -3.459,-1.2839 -1.5796,-0.94597 -2.0636,-2.9544 -1.8871,-4.6787 0.11329,-0.69098 0.09942,-1.5034 0.61004,-2.0253 0.33258,-0.75713 0.0061,-1.7899 -0.69015,-2.2281 -0.91297,0.13223 -0.6116,1.576 -0.97262,2.2599 -0.06414,0.29272 -0.11812,0.58805 -0.14977,0.88619 z m 12.705,-8.7512 c 0.3375,1.6402 2.3363,2.4491 2.3383,4.213 -0.03449,1.123 0.14107,2.2539 0.03239,3.3811 -0.07101,1.0655 -0.28376,2.1331 -0.73502,3.106 0.02622,0.60656 0.67326,1.706 1.3364,1.2565 0.26605,-1.0379 0.42717,-2.1289 0.57458,-3.2005 0.23757,-1.7965 0.0259,-3.6666 -0.82002,-5.2869 -0.56533,-1.1112 -1.2227,-2.227 -2.1373,-3.0807 -0.19368,-0.13372 -0.39914,-0.24967 -0.58944,-0.38839 z" />
    <path
       id="path6672"
       style="fill:#ffffff;stroke:#fffffd;fill-opacity:1;stroke-opacity:1"
       d="m 44.952,80.922 c -0.11763,0.63888 -0.29757,2.2014 0.56864,0.99728 1.6209,-1.2414 3.6859,-1.6254 5.6558,-1.9297 1.2921,0.64678 1.9367,2.2635 1.9417,3.6303 -0.381,0.68676 -1.363,2.0855 -0.67723,2.5676 1.4922,-1.6865 1.8774,-4.3365 0.64447,-6.2749 -0.39595,-1.2366 -1.7233,-1.979 -2.9397,-1.3992 -1.8743,0.3628 -3.8889,0.9202 -5.1936,2.4086 z m 0.18539,3.6984 c -0.5654,1.0919 -0.64231,2.4748 0.34772,3.3607 0.87118,1.2296 2.4506,1.6531 3.8672,1.272 1.0639,0.24706 1.9553,-1.8709 0.98368,-1.9578 -1.3153,0.62611 -3.4811,0.65656 -4.1043,-0.94248 -0.06496,-0.73324 -1.1104,-2.054 -1.0894,-0.52805 -0.31495,1.4564 0.40294,-2.1242 -6.31e-4,-0.18212 -0.3176,1.3072 0.0147,-0.81096 -0.0043,-1.0222 z" />
    <path
       id="path6674"
       style="fill:none;fill-opacity:0.17059"
       d="m 42.822,79.02 c -1.6023,1.5721 -1.9638,3.9058 -2.2114,6.0361 -0.06966,1.0934 0.33782,2.228 1.0504,3.057 0.43252,0.63212 1.2366,0.50868 1.1449,-0.34558 -0.0442,-1.1926 -1.4174,-1.805 -1.506,-2.9914 -0.46547,-1.6052 0.45416,-3.2395 1.6372,-4.2768 0.50238,-0.38935 0.99527,-0.93799 1.6573,-0.96936 0.68905,-0.29778 1.1103,-1.1861 0.91828,-1.9078 -0.68867,-0.47636 -1.3807,0.66972 -2.0433,0.90123 -0.22356,0.15496 -0.44197,0.31793 -0.64729,0.49657 z m 13.855,2.0347 c -0.78935,1.299 0.03949,3.0722 -1.0494,4.246 -0.71702,0.72525 -1.2993,1.5856 -2.0682,2.2678 -0.70578,0.66448 -1.507,1.2427 -2.4084,1.6106 -0.35746,0.41945 -0.60681,1.5503 0.11189,1.6613 0.81838,-0.52558 1.5998,-1.1513 2.3601,-1.7726 1.2683,-1.0475 2.2834,-2.4215 2.7225,-4.0215 0.31096,-1.0881 0.56357,-2.2362 0.48322,-3.369 -0.04611,-0.2086 -0.11103,-0.41267 -0.15181,-0.62251 z" />
    <path
       id="path6678"
       style="fill:#ffffff;stroke:#fffffd;fill-opacity:1;stroke-opacity:1"
       d="m 76.063,43.691 c 0.27962,0.62437 1.057,2.0871 1.0889,0.52527 0.66432,-2.0449 2.2259,-3.6116 3.7526,-5.0521 1.507,-0.21091 3.0319,0.80624 3.8526,1.9887 0.0798,0.82323 0.06362,2.623 0.94641,2.6314 0.28678,-2.3541 -0.9622,-4.8826 -3.1894,-5.8272 -1.0821,-0.83594 -2.6768,-0.68697 -3.3855,0.54255 -1.4089,1.4343 -2.8232,3.1212 -3.0657,5.1914 z m 2.3701,3.0969 c 0.1619,1.2848 0.92125,2.5301 2.3091,2.707 1.4901,0.54606 3.113,-0.03014 4.1139,-1.207 1.0703,-0.42125 0.57825,-2.7906 -0.31633,-2.2856 -0.76672,1.3287 -2.627,2.6489 -4.1226,1.6343 -0.49435,-0.59714 -2.19,-1.1181 -1.2603,0.19281 0.59682,1.4512 -0.91941,-2.083 -0.10934,-0.15758 0.5054,1.3234 -0.47168,-0.71213 -0.61437,-0.88403 z" />
    <path
       id="path6680"
       style="fill:none;fill-opacity:0.17059"
       d="m 73.08,43.314 c -0.45054,2.3207 0.6299,4.5606 1.6877,6.5562 0.59274,0.98993 1.6239,1.7305 2.7372,2.0239 0.75273,0.28987 1.3764,-0.29755 0.78655,-0.98364 -0.75073,-1.0079 -2.3076,-0.71878 -3.0932,-1.6948 -1.3626,-1.1141 -1.5413,-3.081 -1.1348,-4.6872 0.20314,-0.63779 0.30288,-1.4081 0.85833,-1.8307 0.41973,-0.66988 0.25443,-1.692 -0.3432,-2.2032 -0.88185,-0.0018 -0.7974,1.4056 -1.2338,2.0022 -0.10133,0.26794 -0.19341,0.53976 -0.26476,0.81734 z m 13.232,-6.5118 c 0.09135,1.5981 1.8694,2.6409 1.6263,4.3094 -0.18864,1.0573 -0.17971,2.1514 -0.43908,3.2023 -0.21519,0.99791 -0.56472,1.978 -1.1267,2.8355 -0.05946,0.57732 0.39976,1.707 1.0894,1.374 0.39582,-0.94471 0.69977,-1.9542 0.98807,-2.9472 0.47427,-1.6661 0.53387,-3.4642 -0.04109,-5.1142 -0.38031,-1.1295 -0.84701,-2.2761 -1.5934,-3.2106 -0.1646,-0.15338 -0.34281,-0.29159 -0.50353,-0.44922 z" />
    <path
       id="path6684"
       style="fill:#ffffff;stroke:#fffffd;fill-opacity:1;stroke-opacity:1"
       d="m 16.685,60.261 c -0.47439,-0.24088 -1.6597,-0.74539 -0.91536,0.21476 0.5981,1.5615 0.41973,3.2725 0.2008,4.8902 -0.80828,0.86441 -2.2278,0.99483 -3.3023,0.68106 -0.45078,-0.45884 -1.321,-1.5552 -1.859,-1.1287 0.97757,1.5639 2.9692,2.4823 4.778,1.9646 1.0631,-0.02352 1.9547,-0.89337 1.7821,-1.9834 0.15075,-1.5563 0.18128,-3.268 -0.68433,-4.6385 z m -2.9475,-0.71406 c -0.72609,-0.69783 -1.7942,-1.0797 -2.7201,-0.50808 -1.1682,0.39835 -1.8679,1.5403 -1.8978,2.7414 -0.44132,0.77808 1.0147,1.9704 1.3088,1.2276 -0.18598,-1.1784 0.29352,-2.8864 1.6941,-3.0041 0.59093,0.11942 1.8711,-0.39458 0.66792,-0.73283 -1.0705,-0.58585 1.5745,0.81018 0.14317,0.04184 -0.95274,-0.55326 0.63345,0.20004 0.80379,0.23423 z" />
    <path
       id="path6686"
       style="fill:none;fill-opacity:0.17059"
       d="m 18.674,59.03 c -0.86221,-1.6237 -2.6108,-2.4501 -4.2263,-3.1397 -0.84249,-0.30886 -1.8282,-0.25257 -2.6449,0.11436 -0.59696,0.19274 -0.68692,0.85294 0.0053,0.97945 0.94683,0.24249 1.747,-0.69359 2.6993,-0.48742 1.3688,0.0076 2.4385,1.1097 2.9781,2.2798 0.18899,0.48504 0.50529,0.99964 0.37604,1.5268 0.0737,0.61035 0.67342,1.1477 1.2848,1.1646 0.53418,-0.43011 -0.20503,-1.2399 -0.23281,-1.8142 C 18.8438,59.4421 18.76658,59.2327 18.67401,59.02993 Z M 13.855,69.438 C 13.019,68.516 11.433,68.755 10.765,67.627 10.362,66.895 9.8214,66.238 9.4644,65.476 9.1067,64.767 8.8388,64.003 8.7594,63.21 8.5131,62.832 7.683,62.373 7.4287,62.912 c 0.22253,0.76486 0.53229,1.524 0.84348,2.2655 0.52782,1.2395 1.3709,2.3561 2.5254,3.0728 0.78226,0.49713 1.6251,0.96236 2.5335,1.1626 0.17454,0.01228 0.34989,0.0087 0.52416,0.02547 z" />
  </g>
  <metadata
     id="metadata78">
    <rdf:RDF>
      <cc:Work>
        <dc:format>image/svg+xml</dc:format>
        <dc:type
           rdf:resource="http://purl.org/dc/dcmitype/StillImage" />
        <cc:license
           rdf:resource="http://creativecommons.org/licenses/publicdomain/" />
        <dc:publisher>
          <cc:Agent
             rdf:about="http://openclipart.org/">
            <dc:title>Openclipart</dc:title>
          </cc:Agent>
        </dc:publisher>
        <dc:title>Potato Line Art</dc:title>
        <dc:date>2010-07-09T04:53:01</dc:date>
        <dc:description />
        <dc:source>https://openclipart.org/detail/71743/potato-line-art-by-horse50</dc:source>
        <dc:creator>
          <cc:Agent>
            <dc:title>horse50</dc:title>
          </cc:Agent>
        </dc:creator>
        <dc:subject>
          <rdf:Bag>
            <rdf:li>coloring book</rdf:li>
            <rdf:li>food</rdf:li>
            <rdf:li>line art</rdf:li>
            <rdf:li>outline</rdf:li>
            <rdf:li>potato</rdf:li>
            <rdf:li>vegetable</rdf:li>
          </rdf:Bag>
        </dc:subject>
      </cc:Work>
      <cc:License
         rdf:about="http://creativecommons.org/licenses/publicdomain/">
        <cc:permits
           rdf:resource="http://creativecommons.org/ns#Reproduction" />
        <cc:permits
           rdf:resource="http://creativecommons.org/ns#Distribution" />
        <cc:permits
           rdf:resource="http://creativecommons.org/ns#DerivativeWorks" />
      </cc:License>
    </rdf:RDF>
  </metadata>
</svg>
